<?xml version="1.0" encoding="utf-8" ?>
<svg xmlns="http://www.w3.org/2000/svg" xmlns:xlink="http://www.w3.org/1999/xlink" width="16" height="20">
	<defs>
		<clipPath id="clip_0">
			<rect x="-1683" y="-17" width="1862.4" height="970" clip-rule="evenodd"/>
		</clipPath>
	</defs>
	<g clip-path="url(#clip_0)">
		<path fill="rgb(0,0,0)" stroke="none" transform="matrix(0.97 0 0 0.97 0.241089 0.557001)" d="M13.5882 8.18125L13.5882 13.475L15.4 15.4L15.4 16.3625L0 16.3625L0 15.4L1.81176 13.475L1.81176 8.18125C1.81176 5.1975 3.71412 2.79125 6.34118 2.1175L6.34118 1.44375C6.34118 0.67375 6.97529 0 7.7 0C8.42471 0 9.05882 0.67375 9.05882 1.44375L9.05882 2.1175C11.6859 2.79125 13.5882 5.1975 13.5882 8.18125ZM9.51176 17.325C9.51176 18.3838 8.69647 19.25 7.7 19.25C6.70353 19.25 5.88824 18.3838 5.88824 17.325L9.51176 17.325Z" fill-rule="evenodd"/>
	</g>
</svg>
