<?xml version="1.0" encoding="utf-8" ?>
<svg xmlns="http://www.w3.org/2000/svg" xmlns:xlink="http://www.w3.org/1999/xlink" width="11" height="14">
	<defs>
		<clipPath id="clip_0">
			<rect x="-149" y="-177" width="1843.2" height="960" clip-rule="evenodd"/>
		</clipPath>
	</defs>
	<g clip-path="url(#clip_0)">
		<path fill="rgb(151,151,151)" stroke="none" transform="matrix(0.96 0 0 0.96 0.759995 0.599991)" d="M0 2.5L0 13.5992L5.13354 10.6124L10.2678 13.6042L10.2678 2.76777C10.2678 1.04163 9.12111 0 7.5 0L2.5 0C0.947715 0 0 0.947715 0 2.5ZM5.13422 8.38757L2 10.4008L2 3C2 2.21832 2.12146 2 3 2L7.5 2C8.05713 2 8.26777 2.19135 8.26777 2.76777L8.26777 10.4036L5.13422 8.38757Z" fill-rule="evenodd"/>
	</g>
</svg>