<?xml version="1.0" encoding="utf-8" ?>
<svg xmlns="http://www.w3.org/2000/svg" xmlns:xlink="http://www.w3.org/1999/xlink" width="16" height="18">
	<defs>
		<clipPath id="clip_0">
			<rect x="-967" y="-519" width="1804.8" height="940" clip-rule="evenodd"/>
		</clipPath>
	</defs>
	<g clip-path="url(#clip_0)">
		<path fill="rgb(0,0,0)" stroke="none" transform="matrix(0.94 0 0 0.94 0.26001 0.820007)" d="M13.4567 2.0829L14.7621 2.0829C15.4174 2.0829 15.9487 2.61555 15.9487 3.27259L15.9487 16.026C15.9487 16.6832 15.4174 17.2157 14.7621 17.2157L1.18666 17.2157C0.531292 17.2157 0 16.6832 0 16.026L0 3.27259C0 2.61555 0.531292 2.0829 1.18666 2.0829L2.49199 2.0829L2.49199 1.18969C2.49199 0.532647 3.02328 0 3.67865 0L3.72612 0C4.38148 0 4.91278 0.532647 4.91278 1.18969L4.91278 2.0829L11.0359 2.0829L11.0359 1.18969C11.0359 0.532647 11.5672 0 12.2226 0L12.2701 0C12.9254 0 13.4567 0.532647 13.4567 1.18969L13.4567 2.0829ZM1.99359 15.336L13.9551 15.336L13.9551 5.67576L1.99359 5.67576L1.99359 15.336ZM3.61936 10.0473L5.68406 10.0473C5.78891 10.0473 5.87392 9.96211 5.87392 9.85699L5.87392 7.78702C5.87392 7.6819 5.78891 7.59667 5.68406 7.59667L3.61936 7.59667C3.51451 7.59667 3.4295 7.6819 3.4295 7.78702L3.4295 9.85699C3.4295 9.96211 3.51451 10.0473 3.61936 10.0473ZM9.00671 10.0473L6.94201 10.0473C6.83716 10.0473 6.75215 9.96211 6.75215 9.85699L6.75215 7.78702C6.75215 7.6819 6.83716 7.59667 6.94201 7.59667L9.00671 7.59667C9.11156 7.59667 9.19658 7.6819 9.19658 7.78702L9.19658 9.85699C9.19658 9.96211 9.11156 10.0473 9.00671 10.0473ZM10.2647 10.0473L12.3294 10.0473C12.4342 10.0473 12.5192 9.96211 12.5192 9.85699L12.5192 7.78702C12.5192 7.6819 12.4342 7.59667 12.3294 7.59667L10.2647 7.59667C10.1598 7.59667 10.0748 7.6819 10.0748 7.78702L10.0748 9.85699C10.0748 9.96211 10.1598 10.0473 10.2647 10.0473ZM5.68406 13.3785L3.61936 13.3785C3.51451 13.3785 3.4295 13.2932 3.4295 13.1881L3.4295 11.1181C3.4295 11.013 3.51451 10.9278 3.61936 10.9278L5.68406 10.9278C5.78891 10.9278 5.87392 11.013 5.87392 11.1181L5.87392 13.1881C5.87392 13.2932 5.78891 13.3785 5.68406 13.3785ZM6.94201 13.3785L9.00671 13.3785C9.11156 13.3785 9.19658 13.2932 9.19658 13.1881L9.19658 11.1181C9.19658 11.013 9.11156 10.9278 9.00671 10.9278L6.94201 10.9278C6.83716 10.9278 6.75215 11.013 6.75215 11.1181L6.75215 13.1881C6.75215 13.2932 6.83716 13.3785 6.94201 13.3785ZM12.3294 13.3785L10.2647 13.3785C10.1598 13.3785 10.0748 13.2932 10.0748 13.1881L10.0748 11.1181C10.0748 11.013 10.1598 10.9278 10.2647 10.9278L12.3294 10.9278C12.4342 10.9278 12.5192 11.013 12.5192 11.1181L12.5192 13.1881C12.5192 13.2932 12.4342 13.3785 12.3294 13.3785Z" fill-rule="evenodd"/>
	</g>
</svg>
