<svg width="18" height="18">
	<g>
		<path fill="#00cf7a" stroke="none" d="M9 0C4.0374 0 0 4.0374 0 9C0 13.9626 4.0374 18 9 18C13.9626 18 18 13.9626 18 9C18 4.0374 13.9625 0 9 0ZM9 16.4571C4.88822 16.4571 1.54287 13.1118 1.54287 9C1.54287 4.88822 4.88822 1.54287 9 1.54287C13.1118 1.54287 16.4571 4.88822 16.4571 9C16.4571 13.1118 13.1117 16.4571 9 16.4571ZM11.4875 5.37791C11.8003 5.06451 12.3086 5.06451 12.622 5.37791C12.9354 5.69131 12.9354 6.19907 12.622 6.51248L10.1345 9.00004L12.6221 11.4876C12.9355 11.801 12.9355 12.3087 12.6221 12.6221C12.4653 12.7788 12.2601 12.8571 12.0548 12.8571C11.8494 12.8571 11.6441 12.7787 11.4875 12.6221L9 10.1345L6.51254 12.6221C6.3561 12.7788 6.15056 12.8571 5.94523 12.8571C5.7399 12.8571 5.53457 12.7787 5.37792 12.6221C5.0645 12.3087 5.0645 11.801 5.37792 11.4876L7.86549 8.99993L5.37803 6.51237C5.06461 6.19897 5.06461 5.69131 5.37803 5.37791C5.69144 5.06451 6.19912 5.06451 6.51254 5.37791L9 7.86558L11.4875 5.37791Z" fill-rule="evenodd"/>
	</g>
</svg>
