<?xml version="1.0" encoding="utf-8" ?>
<svg xmlns="http://www.w3.org/2000/svg" xmlns:xlink="http://www.w3.org/1999/xlink" width="23" height="23">
	<defs>
		<clipPath id="clip_0">
			<rect x="-14" y="-178" width="1915.968" height="997.90002" clip-rule="evenodd"/>
		</clipPath>
	</defs>
	<g clip-path="url(#clip_0)">
		<path fill="rgb(0,0,0)" stroke="none" transform="matrix(0.963897 0.258276 -0.258276 0.963897 4.9601 0.6241)" d="M9 18C4.03575 18 0 13.9642 0 8.99998C0 4.03579 4.03575 0 9 0C13.9642 0 18 4.03579 18 8.99998C18 13.9642 13.9642 18 9 18ZM10.1558 13.3957L10.1558 14.7221L9.26525 14.7221L9.26525 13.3957L8.33684 13.3957L8.33684 14.7221L7.44633 14.7221L7.44633 13.3957L5.66525 13.3957L5.66525 12.1832L6.21475 12.1832C6.49891 12.1832 6.70735 11.9558 6.70735 11.6905L6.70735 6.32843C6.70735 6.04422 6.47999 5.83583 6.21475 5.83583L5.66525 5.83583L5.66525 4.62317L7.44633 4.62317L7.44633 3.29686L8.33684 3.29686L8.33684 4.62317L9.26524 4.62317L9.26524 3.29686L10.1558 3.29686L10.1558 4.64209C10.6105 4.66106 10.9705 4.71791 11.3305 4.8695C12.1263 5.17263 12.6758 5.91155 12.6758 6.89685C12.6758 7.73056 12.2968 8.41264 11.5958 8.77262C12.581 9.09476 13.0168 9.94734 13.0168 10.8758C12.9979 12.0694 12.2021 12.941 11.2547 13.2442C10.8758 13.3579 10.5348 13.3957 10.1558 13.3957ZM11.0084 7.02945C11.0084 6.5937 10.8379 6.21475 10.4968 6.02528C10.3074 5.93054 10.0421 5.89261 9.73894 5.89261L8.37469 5.89261L8.37469 8.18525L9.92842 8.18525C10.6105 8.18525 11.0084 7.71157 11.0084 7.02945ZM10.08 9.47367L8.37473 9.47367L8.37473 12.0884L10.0042 12.0884C10.2126 12.0884 10.4589 12.0694 10.6294 11.9937C11.0842 11.8042 11.3305 11.3116 11.3305 10.7621C11.3495 10.0042 10.8758 9.47367 10.08 9.47367Z" fill-rule="evenodd"/>
	</g>
</svg>
