<?xml version="1.0" encoding="utf-8" ?>
<svg xmlns="http://www.w3.org/2000/svg" xmlns:xlink="http://www.w3.org/1999/xlink" width="19" height="19">
	<defs>
		<clipPath id="clip_0">
			<rect x="-1777" y="-21" width="1920" height="1000" clip-rule="evenodd"/>
		</clipPath>
	</defs>
	<g clip-path="url(#clip_0)">
		<path fill="rgb(0,207,122)" stroke="none" d="M0 9.5C0 11.9132 0.91237 14.1922 2.52098 15.9351C2.56706 16.0025 2.61401 16.0502 2.68752 16.1153C4.4687 17.9458 6.90299 19 9.5 19C14.7366 19 19 14.7366 19 9.5C19 4.26339 14.7366 0 9.5 0C4.26339 0 0 4.26339 0 9.5ZM3.35485 15.3805L3.36134 15.3784C3.37474 15.3895 3.39163 15.405 3.39163 15.405C3.40447 15.4182 3.41736 15.4314 3.43028 15.4446L3.35485 15.3805ZM15.6211 15.39C14.0734 16.9977 11.9008 18 9.5 18C7.18896 18 5.02307 17.0675 3.43028 15.4446L4.03278 15.9561C5.54842 17.243 7.47335 17.964 9.5 17.964C11.5265 17.964 13.4467 17.2432 14.9575 15.9555L15.6211 15.39ZM15.6317 15.379L15.6333 15.3795L15.6211 15.39C15.6246 15.3863 15.6281 15.3826 15.6317 15.379ZM11.6014 13.0872L11.6158 13.0872C12.001 13.8 13.167 14.6009 15.3411 15.2336L15.6468 15.3225L15.8568 15.0831C17.2039 13.5468 17.964 11.5762 17.964 9.5C17.964 4.83374 14.1663 1.03605 9.5 1.03605C4.83374 1.03605 1.03605 4.83374 1.03605 9.5C1.03605 11.5801 1.79372 13.5454 3.14394 15.0787L3.35417 15.3174L3.65949 15.2282C6.02454 14.5367 7.1563 13.6798 7.46374 12.8307L7.57563 12.5216L7.33629 12.2964C7.24846 12.2137 7.17265 12.1368 7.10568 12.0614C6.55195 11.4349 6.22671 10.542 6.09454 9.49433C6.00929 8.81853 6.01559 8.21286 6.0575 7.78541C6.16563 5.50334 7.54516 4.32267 9.34302 4.32267L9.51047 4.32267C11.3063 4.32267 12.6837 5.50258 12.7942 7.76105C12.8387 8.22926 12.8456 8.82323 12.7609 9.4986C12.6295 10.5454 12.3042 11.4363 11.748 12.0612C11.7078 12.1047 11.6691 12.1441 11.5796 12.2337L11.2878 12.5254L10.8679 12.7283C10.469 12.921 10.001 13.0252 9.46599 13.0343L9.36395 13.0343C8.8918 13.0298 8.45997 12.9411 8.07224 12.7724L7.64038 12.5844L7.42696 13.0042C7.05283 13.7402 6.06546 14.4811 4.19892 15.1004L3.36134 15.3784C3.35068 15.3696 3.34223 15.3635 3.34619 15.3701L3.28329 15.2865C1.82614 13.7224 1 11.6726 1 9.5C1 4.81568 4.81568 1 9.5 1C14.1843 1 18 4.81568 18 9.5C18 11.7781 17.0976 13.8507 15.6317 15.379L14.7903 15.1003C12.9849 14.5025 12.003 13.793 11.6014 13.0872ZM11.6014 13.0872C11.578 13.0461 11.5566 13.005 11.5371 12.964L11.3211 12.5093L11.2878 12.5254L10.726 13.0872L11.6014 13.0872ZM16.964 9.5C16.964 5.38603 13.614 2.03605 9.5 2.03605C5.38603 2.03605 2.03605 5.38603 2.03605 9.5C2.03605 11.226 2.62697 12.8607 3.68911 14.1745C5.23486 13.6907 6.04655 13.1811 6.37776 12.7475C5.64875 11.923 5.25749 10.8489 5.1024 9.61948C5.00663 8.86027 5.01367 8.18355 5.06044 7.7131C5.19305 4.89774 7.0334 3.32267 9.34302 3.32267L9.51047 3.32267C11.8179 3.32267 13.6553 4.8966 13.7913 7.68877C13.8405 8.2008 13.8483 8.8643 13.7531 9.62306C13.6033 10.8171 13.2294 11.8637 12.5507 12.6617C12.6023 12.7272 12.6818 12.8199 12.7981 12.928C13.2645 13.3616 14.0752 13.7926 15.3101 14.1797C16.3708 12.8623 16.964 11.2225 16.964 9.5ZM9.51046 4.36395L9.34302 4.36395C7.64525 4.36395 6.20469 5.31852 6.09101 7.79735C6.05683 8.06325 6.04787 8.7417 6.11111 9.34179C6.22635 10.4352 6.54341 11.3742 7.14529 12.0427C7.70663 12.6734 8.45838 12.986 9.40987 12.9982C9.42413 12.9983 9.42413 12.9983 9.44767 12.9983C10.3961 12.9921 11.1555 12.6755 11.7206 12.0406C12.3191 11.3676 12.6332 10.428 12.7458 9.33675C12.8076 8.73703 12.7971 8.06168 12.7624 7.79641C12.6456 5.31727 11.2035 4.36395 9.51046 4.36395ZM7.0907 7.83605L7.08099 7.9341C6.93401 8.66897 7.13032 10.5316 7.89036 11.3757C8.25801 11.7888 8.74079 11.9896 9.41628 11.9983L9.44128 11.9983C10.1166 11.9939 10.6045 11.7905 10.9735 11.3759C11.7294 10.5259 11.9204 8.67358 11.7628 7.83605C11.6787 5.99169 10.7304 5.36395 9.51047 5.36395L9.34302 5.36395C8.12037 5.36395 7.1748 5.99053 7.0907 7.80465L7.0907 7.83605ZM9.5 16.964C10.9836 16.964 12.4013 16.5262 13.6019 15.7278C12.2484 15.1732 11.3658 14.517 10.8729 13.8045C10.4485 13.9488 9.98394 14.0256 9.4843 14.0343L9.38227 14.0343C8.90916 14.03 8.4833 13.9655 8.08443 13.8419C7.58633 14.5405 6.71313 15.1826 5.38863 15.7267C6.59365 16.5256 8.0154 16.964 9.5 16.964Z" fill-rule="evenodd"/>
	</g>
</svg>
