<?xml version="1.0" encoding="utf-8" ?>
<svg xmlns="http://www.w3.org/2000/svg" xmlns:xlink="http://www.w3.org/1999/xlink" width="15" height="15">
	<defs>
		<clipPath id="clip_0">
			<rect x="-64" y="-127" width="1920" height="1000" clip-rule="evenodd"/>
		</clipPath>
	</defs>
	<g clip-path="url(#clip_0)">
		<path fill="rgb(0,0,0)" stroke="none" d="M11.0742 9.94962L14.7719 13.6626C15.0848 13.9768 15.0744 14.4776 14.7493 14.7796C14.5963 14.9218 14.3947 15 14.1823 15C13.9578 15 13.7484 14.9139 13.5926 14.7577L9.86677 11.0166C8.80883 11.7344 7.57143 12.1125 6.27293 12.1125C2.81409 12.1125 0 9.39561 0 6.05624C0 2.71688 2.81409 0 6.27293 0C9.73177 0 12.5459 2.71688 12.5459 6.05624C12.5459 7.48552 12.0249 8.85844 11.0742 9.94962ZM10.9094 6.05624C10.9094 3.58793 8.82956 1.57989 6.27293 1.57989C3.7163 1.57989 1.63642 3.58793 1.63642 6.05624C1.63642 8.52456 3.7163 10.5326 6.27293 10.5326C8.82956 10.5326 10.9094 8.52456 10.9094 6.05624Z" fill-rule="evenodd"/>
	</g>
</svg>
