<?xml version="1.0" encoding="utf-8" ?>
<svg xmlns="http://www.w3.org/2000/svg" xmlns:xlink="http://www.w3.org/1999/xlink" width="16" height="20">
	<defs>
		<clipPath id="clip_0">
			<rect x="-531" y="-678" width="1862.4" height="970" clip-rule="evenodd"/>
		</clipPath>
	</defs>
	<g clip-path="url(#clip_0)">
		<path fill="rgb(0,0,0)" stroke="none" transform="matrix(0.97 0 0 0.97 0.559998 1)" d="M13.5882 13.475L13.5882 8.18125C13.5882 5.1975 11.6859 2.79125 9.05882 2.1175L9.05882 1.44375C9.05882 0.67375 8.42471 0 7.7 0C6.97529 0 6.34118 0.67375 6.34118 1.44375L6.34118 2.1175C3.71412 2.79125 1.81176 5.1975 1.81176 8.18125L1.81176 13.475L0 15.4L0 16.3625L15.4 16.3625L15.4 15.4L13.5882 13.475ZM3.62353 14.4375L11.7765 14.4375L11.7765 8.18125C11.7765 5.775 9.9647 3.85 7.7 3.85C5.43529 3.85 3.62353 5.775 3.62353 8.18125L3.62353 14.4375ZM7.7 19.25C8.69647 19.25 9.51176 18.3838 9.51176 17.325L5.88824 17.325C5.88824 18.3838 6.70353 19.25 7.7 19.25Z" fill-rule="evenodd"/>
	</g>
</svg>
