<?xml version="1.0" encoding="utf-8" ?>
<svg xmlns="http://www.w3.org/2000/svg" xmlns:xlink="http://www.w3.org/1999/xlink" width="20" height="20">
	<defs>
		<clipPath id="clip_0">
			<rect x="-1292" y="-12" width="1824" height="950" clip-rule="evenodd"/>
		</clipPath>
	</defs>
	<g clip-path="url(#clip_0)">
		<path fill="rgb(0,0,0)" stroke="none" transform="matrix(0.95 0 0 0.95 0.96106 0.349999)" d="M0 9.98824C0 4.47191 4.47191 0 9.98824 0C15.5046 0 19.9765 4.47191 19.9765 9.98824C19.9765 15.5046 15.5046 19.9765 9.98824 19.9765C4.47191 19.9765 0 15.5046 0 9.98824ZM9.98823 18.1686C5.47035 18.1686 1.80786 14.5061 1.80786 9.98823C1.80786 5.47035 5.47035 1.80786 9.98823 1.80786C14.5038 1.81334 18.1631 5.47259 18.1686 9.98823C18.1686 14.5062 14.5062 18.1686 9.98823 18.1686ZM9.05788 4.08658C11.2038 3.57278 13.3599 4.89582 13.8737 7.04172C14.3846 9.16271 13.0996 11.3013 10.9871 11.846L10.9871 12.9847L8.98943 12.9847L8.98943 10.8772C8.98943 10.3863 9.38744 9.98823 9.8784 9.98823C10.8913 10.0236 11.7819 9.32297 11.9859 8.3302C12.0797 7.22694 11.2613 6.25655 10.1581 6.16277C9.05479 6.06899 8.0844 6.88735 7.99062 7.99062L5.99295 7.99062C5.98434 6.13552 7.25376 4.51854 9.05788 4.08658ZM10.9871 13.9836L8.98943 13.9836L8.98943 15.9812L10.9871 15.9812L10.9871 13.9836Z" fill-rule="evenodd"/>
	</g>
</svg>
