<?xml version="1.0" encoding="utf-8" ?>
<svg xmlns="http://www.w3.org/2000/svg" xmlns:xlink="http://www.w3.org/1999/xlink" width="40" height="40">
	<defs>
		<clipPath id="clip_0">
			<path d="M31.2691 17.1055C31.2438 16.8808 30.9818 16.7119 30.7552 16.7119C30.0228 16.7119 29.3728 16.2818 29.1002 15.6167C28.8217 14.9354 29.0013 14.1409 29.5472 13.6401C29.719 13.483 29.7399 13.22 29.5958 13.0374C29.2209 12.5613 28.7947 12.1313 28.3295 11.7586C28.1473 11.6124 27.88 11.6327 27.722 11.8076C27.2456 12.3353 26.3898 12.5314 25.7285 12.2555C25.0403 11.966 24.6064 11.2686 24.6488 10.5201C24.6628 10.285 24.491 10.0805 24.2566 10.0532C23.6595 9.98418 23.0572 9.98204 22.4584 10.0485C22.2267 10.0741 22.0548 10.2737 22.0626 10.5058C22.0887 11.247 21.6495 11.9321 20.9681 12.2112C20.3147 12.4781 19.465 12.2837 18.9895 11.7607C18.8323 11.5885 18.5694 11.5673 18.3863 11.71C17.9072 12.0858 17.4716 12.5162 17.0932 12.9884C16.9456 13.1719 16.9674 13.438 17.1409 13.5959C17.6972 14.0997 17.8769 14.9011 17.5878 15.5902C17.3119 16.2473 16.6297 16.6707 15.8487 16.6707C15.5952 16.6625 15.4147 16.8327 15.387 17.0631C15.3167 17.6636 15.3158 18.2755 15.3835 18.8808C15.4086 19.1065 15.6786 19.2739 15.9077 19.2739C16.6037 19.2561 17.2719 19.687 17.5523 20.3692C17.8317 21.0505 17.6521 21.8445 17.1053 22.3457C16.9343 22.5028 16.9126 22.7653 17.0567 22.948C17.4281 23.421 17.8543 23.8515 18.3212 24.2273C18.5044 24.3748 18.7708 24.354 18.9296 24.1791C19.4078 23.6501 20.2635 23.4544 20.9222 23.7309C21.6121 24.0195 22.0461 24.7167 22.0036 25.4657C21.9897 25.7009 22.1624 25.9057 22.3959 25.9326C22.7013 25.9682 23.0086 25.986 23.3167 25.986C23.6091 25.986 23.9017 25.97 24.1941 25.9374C24.4259 25.9119 24.5976 25.7122 24.5898 25.4797C24.563 24.7389 25.003 24.0538 25.6834 23.7752C26.3412 23.5065 27.1874 23.7031 27.663 24.2255C27.821 24.3974 28.0821 24.4182 28.2662 24.276C28.7444 23.901 29.1792 23.471 29.5593 22.9975C29.7068 22.8144 29.686 22.5479 29.5115 22.3901C28.9552 21.8863 28.7747 21.0847 29.0637 20.3961C29.3354 19.7478 29.9923 19.3125 30.6989 19.3125L30.7977 19.3151C31.0269 19.3337 31.2377 19.1572 31.2655 18.9232C31.3359 18.3222 31.3368 17.7109 31.2691 17.1055ZM23.339 20.676C21.8688 20.676 20.6729 19.4802 20.6729 18.0099C20.6729 16.5398 21.8688 15.3438 23.339 15.3438C24.8091 15.3438 26.005 16.5398 26.005 18.0099C26.005 19.4802 24.8091 20.676 23.339 20.676Z" clip-rule="evenodd"/>
		</clipPath>
	</defs>
	<g clip-path="url(#clip_0)">
		<path fill="rgb(0,207,122)" stroke="none" transform="translate(0.333313 0)" d="M0 0L40 0L40 40L0 40L0 0Z"/>
	</g>
</svg>
