<?xml version="1.0" encoding="utf-8" ?>
<svg xmlns="http://www.w3.org/2000/svg" xmlns:xlink="http://www.w3.org/1999/xlink" width="20" height="20">
	<defs>
		<clipPath id="clip_0">
			<rect x="-1508" y="-37" width="1920" height="1000" clip-rule="evenodd"/>
		</clipPath>
	</defs>
	<g clip-path="url(#clip_0)">
		<path fill="rgb(0,0,0)" stroke="none" d="M0 10C0 4.5 4.5 0 10 0C15.5 0 20 4.5 20 10C20 15.5 15.5 20 10 20C4.5 20 0 15.5 0 10ZM10 2C10.8 3.2 11.5 4.5 11.9 6L8.1 6C8.5 4.6 9.2 3.2 10 2ZM3.1 6L6 6C6.3 4.7 6.8 3.6 7.4 2.4C5.6 3.1 4.1 4.3 3.1 6ZM14 6L16.9 6C16 4.3 14.4 3.1 12.6 2.4C13.2 3.6 13.7 4.7 14 6ZM2 10C2 10.7 2.1 11.4 2.3 12L5.7 12C5.7 11.3 5.6 10.7 5.6 10C5.6 9.3 5.6 8.7 5.7 8L2.3 8C2.1 8.6 2 9.3 2 10ZM7.5 10C7.5 10.7 7.6 11.3 7.7 12L12.3 12C12.4 11.3 12.6 10.7 12.6 10C12.6 9.3 12.5 8.7 12.4 8L7.7 8C7.6 8.7 7.5 9.3 7.5 10ZM14.5 10C14.5 10.7 14.5 11.3 14.4 12L17.8 12C18 11.4 18.1 10.7 18.1 10C18.1 9.3 18 8.6 17.8 8L14.4 8C14.4 8.7 14.5 9.3 14.5 10ZM3.1 14L6 14C6.3 15.3 6.8 16.4 7.4 17.6C5.6 16.9 4 15.7 3.1 14ZM10 18C9.2 16.8 8.5 15.5 8.1 14L11.9 14C11.5 15.4 10.8 16.8 10 18ZM12.6 17.6C13.2 16.5 13.7 15.3 14 14L16.9 14C16 15.7 14.4 16.9 12.6 17.6Z" fill-rule="evenodd"/>
	</g>
</svg>
