<?xml version="1.0" encoding="utf-8" ?>
<svg xmlns="http://www.w3.org/2000/svg" xmlns:xlink="http://www.w3.org/1999/xlink" width="15" height="15">
	<defs>
		<clipPath id="clip_0">
			<rect x="-17" y="-127" width="1920" height="1000" clip-rule="evenodd"/>
		</clipPath>
	</defs>
	<g clip-path="url(#clip_0)">
		<path fill="rgb(0,0,0)" stroke="none" d="M3.97934 11.7858L5.56848 11.7858C5.64583 11.7858 5.70923 11.8109 5.75889 11.8609C5.80843 11.9115 5.83333 11.9755 5.83333 12.054C5.83333 12.1206 5.80579 12.1878 5.75054 12.2546L3.11025 14.9249C3.05511 14.9749 2.99159 15 2.91987 15C2.8536 15 2.7902 14.9749 2.7295 14.9249L0.0809451 12.2462C-0.00173422 12.1569 -0.0211575 12.0593 0.0230522 11.9531C0.0672329 11.8415 0.150028 11.7858 0.271322 11.7858L1.86049 11.7858L1.86049 0.267825C1.86049 0.189779 1.8854 0.125571 1.93494 0.0752901C1.98454 0.0250674 2.04812 0 2.12532 0L3.71449 0C3.7918 0 3.8552 0.0251847 3.90489 0.0753194C3.95458 0.125484 3.97934 0.189779 3.97934 0.267855L3.97934 11.7858ZM7.75001 2.5L9.75024 2.5C9.8232 2.5 9.88314 2.47075 9.92986 2.41216C9.97687 2.35353 10 2.27873 10 2.18754L10 0.312496C10 0.221408 9.97685 0.146499 9.92986 0.0878723C9.88314 0.029382 9.8232 0 9.75024 0L7.75001 0C7.67704 0 7.61719 0.0292452 7.57028 0.0878381C7.52351 0.146499 7.5 0.221408 7.5 0.312462L7.5 2.1875C7.5 2.27869 7.5234 2.3535 7.57028 2.41213C7.61722 2.47062 7.67704 2.5 7.75001 2.5ZM7.76039 6.66667L11.4063 6.66667C11.4822 6.66667 11.5446 6.63742 11.5933 6.57876C11.6422 6.52017 11.6667 6.44536 11.6667 6.35414L11.6667 4.47919C11.6667 4.38797 11.6422 4.31316 11.5933 4.25457C11.5446 4.19605 11.4822 4.16667 11.4063 4.16667L7.76039 4.16667C7.68439 4.16667 7.62206 4.19591 7.5732 4.25457C7.52446 4.31316 7.5 4.38797 7.5 4.47919L7.5 6.35414C7.5 6.44536 7.52437 6.52017 7.5732 6.57876C7.62206 6.63732 7.68439 6.66667 7.76039 6.66667ZM13.0683 10.8333L7.76512 10.8333C7.68775 10.8333 7.62427 10.8041 7.57453 10.7456C7.52481 10.6871 7.5 10.6121 7.5 10.521L7.5 8.64562C7.5 8.55456 7.5249 8.47964 7.57453 8.42111C7.62427 8.36258 7.68775 8.33333 7.76512 8.33333L13.0683 8.33333C13.1456 8.33333 13.2091 8.36258 13.2589 8.42111C13.3085 8.47961 13.3333 8.55456 13.3333 8.64562L13.3333 10.521C13.3333 10.6121 13.3085 10.687 13.2589 10.7456C13.2091 10.8041 13.1456 10.8333 13.0683 10.8333ZM14.9248 12.588C14.8745 12.5292 14.8104 12.5 14.7323 12.5L7.76783 12.5C7.68966 12.5 7.62554 12.5292 7.57529 12.588C7.52519 12.6465 7.5 12.7214 7.5 12.8125L7.5 14.6875C7.5 14.7789 7.52507 14.8535 7.57529 14.9122C7.62557 14.9708 7.68966 15 7.76783 15L14.7322 15C14.8104 15 14.8745 14.9708 14.9248 14.9122C14.9749 14.8534 15 14.7789 15 14.6875L15 12.8125C15.0001 12.7215 14.9749 12.6465 14.9248 12.588Z" fill-rule="evenodd"/>
	</g>
</svg>
