<?xml version="1.0" encoding="utf-8" ?>
<svg xmlns="http://www.w3.org/2000/svg" xmlns:xlink="http://www.w3.org/1999/xlink" width="22" height="22">
	<defs>
		<clipPath id="clip_0">
			<rect x="-1637" y="-15" width="1881.6001" height="980" clip-rule="evenodd"/>
		</clipPath>
	</defs>
	<g clip-path="url(#clip_0)">
		<path fill="rgb(0,0,0)" stroke="none" transform="matrix(0.98 0 0 0.98 0.580078 0.68)" d="M10.7319 0C10.3454 0 10.032 0.321191 10.032 0.717406L10.032 2.15218C10.032 2.54835 10.3453 2.86958 10.7319 2.86958C11.1184 2.86958 11.4318 2.54839 11.4318 2.15218L11.4318 0.717406C11.4318 0.321191 11.1184 0 10.7319 0ZM15.0062 1.68658C15.1664 1.39104 15.5213 1.2897 15.7989 1.4604C16.0765 1.63106 16.1716 2.00899 16.0113 2.3045L15.431 3.37478C15.2706 3.67051 14.9156 3.77155 14.6382 3.60096C14.3607 3.43034 14.2656 3.0524 14.4258 2.75686L15.0062 1.68658ZM6.67923 2.75689L6.09888 1.68659C5.93863 1.39104 5.5837 1.28974 5.30614 1.4604C5.02858 1.63103 4.93347 2.00897 5.09372 2.30452L5.67407 3.37483C5.83439 3.67052 6.18943 3.7716 6.46681 3.60101C6.74437 3.43038 6.83948 3.05244 6.67923 2.75689ZM4.19943 11C4.19943 7.30804 7.1299 4.30435 10.7319 4.30435C14.3339 4.30435 17.2643 7.30804 17.2643 11C17.2643 14.692 14.3338 17.6956 10.7319 17.6956C7.1299 17.6956 4.19943 14.692 4.19943 11ZM3.29269 5.81579L2.24843 5.22097C1.96004 5.05666 1.59129 5.15421 1.42485 5.43869C1.25838 5.72316 1.35718 6.08695 1.64554 6.25119L2.68979 6.84601C2.97801 7.01022 3.34682 6.91292 3.51337 6.6283C3.67981 6.34382 3.58105 5.98003 3.29269 5.81579ZM18.8534 5.22098C19.1417 5.0567 19.5104 5.15421 19.6769 5.4387C19.8434 5.72319 19.7446 6.08699 19.4562 6.25123L18.412 6.84608C18.1238 7.01025 17.755 6.91299 17.5884 6.62835C17.422 6.34386 17.5208 5.98007 17.8091 5.81582L18.8534 5.22098ZM10.7319 16.2609C7.90176 16.2609 5.59923 13.9009 5.59923 11C5.59923 8.09914 7.90176 5.73912 10.7319 5.73912C13.562 5.73912 15.8645 8.09918 15.8645 11C15.8645 13.9008 13.562 16.2609 10.7319 16.2609ZM6.99907 11C6.99907 8.89032 8.67357 7.17393 10.7319 7.17393C11.1184 7.17393 11.4318 7.49512 11.4318 7.8913C11.4318 8.28751 11.1184 8.6087 10.7319 8.6087C9.44551 8.6087 8.39891 9.68142 8.39891 11C8.39891 11.3962 8.0855 11.7174 7.69899 11.7174C7.31243 11.7174 6.99907 11.3962 6.99907 11ZM2.09972 10.2826L0.699919 10.2826C0.313362 10.2826 0 10.6038 0 11C0 11.3962 0.313362 11.7174 0.699919 11.7174L2.09972 11.7174C2.48623 11.7174 2.79963 11.3962 2.79963 11C2.79963 10.6038 2.48623 10.2826 2.09972 10.2826ZM20.7638 10.2826L19.364 10.2826C18.9775 10.2826 18.6641 10.6038 18.6641 11C18.6641 11.3962 18.9775 11.7174 19.364 11.7174L20.7638 11.7174C21.1503 11.7174 21.4637 11.3962 21.4637 11C21.4637 10.6038 21.1504 10.2826 20.7638 10.2826ZM18.412 14.7862L19.4562 15.381C19.7446 15.5453 19.8434 15.909 19.6769 16.1935C19.5104 16.4781 19.1416 16.5754 18.8534 16.4112L17.8091 15.8164C17.5208 15.6522 17.422 15.2884 17.5884 15.0039C17.7549 14.7194 18.1236 14.6219 18.412 14.7862ZM3.51328 15.0039C3.34685 14.7194 2.97808 14.622 2.68972 14.7862L1.64549 15.3811C1.35714 15.5453 1.25834 15.9091 1.42481 16.1936C1.59136 16.4783 1.9602 16.5755 2.24837 16.4113L3.29261 15.8165C3.58099 15.6522 3.67976 15.2884 3.51328 15.0039ZM15.431 18.254L16.0113 19.3243C16.1716 19.6199 16.0765 19.9978 15.7989 20.1685C15.5215 20.339 15.1665 20.238 15.0062 19.9423L14.4258 18.872C14.2656 18.5764 14.3607 18.1985 14.6382 18.0278C14.9158 17.8572 15.2707 17.9585 15.431 18.254ZM6.46681 18.0279C6.18925 17.8572 5.83428 17.9585 5.67407 18.254L5.09372 19.3243C4.93347 19.6199 5.02858 19.9978 5.30614 20.1684C5.58356 20.339 5.93856 20.2379 6.09888 19.9422L6.67923 18.872C6.83948 18.5764 6.74437 18.1985 6.46681 18.0279ZM10.032 19.8478C10.032 19.4516 10.3454 19.1304 10.7319 19.1304C11.1184 19.1304 11.4318 19.4517 11.4318 19.8478L11.4318 21.2826C11.4318 21.6788 11.1184 22 10.7319 22C10.3453 22 10.032 21.6788 10.032 21.2826L10.032 19.8478Z" fill-rule="evenodd"/>
	</g>
</svg>
