<?xml version="1.0" encoding="utf-8" ?>
<svg xmlns="http://www.w3.org/2000/svg" xmlns:xlink="http://www.w3.org/1999/xlink" width="15" height="14">
	<defs>
		<clipPath id="clip_0">
			<rect x="-1532" y="-77" width="1920" height="1000" clip-rule="evenodd"/>
		</clipPath>
	</defs>
	<g clip-path="url(#clip_0)">
		<path fill="rgb(0,0,0)" stroke="none" d="M2.49999 3.81818C1.8125 3.81818 1.24998 3.24546 1.24998 2.54544C1.24998 1.84542 1.81247 1.27271 2.49999 1.27271L12.5 1.27271L12.5 2.54544L13.75 2.54544L13.75 0L2.49999 0C1.125 0 0 1.14545 0 2.54547L0 10.8182C0 12.6 1.37502 14 3.12501 14L15 14L15 3.81818L2.49999 3.81818ZM3.12501 12.7273L13.75 12.7273L13.75 5.09091L2.50002 5.09091C2.06251 5.09091 1.62501 4.96363 1.25001 4.70909L1.25001 10.8182C1.25001 11.9 2.06251 12.7273 3.12501 12.7273ZM10.5 11C11.325 11 12 10.325 12 9.5C12 8.67501 11.325 8 10.5 8C9.67498 8 9 8.67498 9 9.5C9.00004 10.325 9.67501 11 10.5 11Z" fill-rule="evenodd"/>
	</g>
</svg>
